# File created by Blade
# Date/Time:  Wed Jan 21 17:21:31 2015
# Frame Rate: 120.000 fps
#------------------------------------------------------
:FULLY-SPECIFIED
:DEGREES
1309
root 19.106195 35.926197 -17.853024 -177.401684 15.039826 -177.471473
Spine 14.686700 1.228116 1.426190
Head -11.717496 11.141879 3.820427
LeftShoulder 1.607115 -23.582686 -1.614328
LeftArm 13.257974 66.428857 -75.476149
LeftForeArm 15.540314 -0.000000 28.631923
LeftHand 0.697325 0.000000 -4.160081
LeftHandThumb1 -26.253704 0.000000 33.147579
RightShoulder -1.036469 -10.519667 6.624331
RightArm 26.765056 -23.602020 59.286839
RightForeArm -13.884675 -0.000000 56.528287
RightHand -1.119835 -0.000000 -0.713553
RightHandThumb1 -24.326973 -0.000000 -32.862282
LeftUpLeg -2.157627 13.221975 -0.819202
LeftLeg 1.645287 -0.000000 -0.000000
LeftFoot -18.505785 31.507712 -9.570389
LeftToeBase 23.176886 -0.000000 -0.000000
RightUpLeg -10.583892 -7.006057 -1.800933
RightLeg 9.152839 -0.000000 -0.000000
RightFoot -11.191928 -16.280659 18.512581
RightToeBase 21.272360 -0.000000 -0.000000
1310
root 19.254962 35.914833 -17.974222 -177.717701 14.370053 -177.558457
Spine 14.019525 1.154462 1.409627
Head -10.714886 10.480261 4.139934
LeftShoulder 1.232312 -23.247507 -1.514223
LeftArm 13.967314 67.100519 -74.695900
LeftForeArm 16.358127 -0.000000 30.561500
LeftHand 0.695490 -0.000000 -3.843216
LeftHandThumb1 -26.253704 0.000000 33.147579
RightShoulder -1.625621 -10.748770 6.981038
RightArm 26.872480 -24.192145 58.851748
RightForeArm -14.129194 -0.000000 57.867457
RightHand -0.908352 -0.000000 -0.297398
RightHandThumb1 -24.326973 -0.000000 -32.862282
LeftUpLeg -1.710602 13.243642 -0.594488
LeftLeg 1.704377 -0.000000 -0.000000
LeftFoot -18.593067 30.940288 -9.524380
LeftToeBase 23.281513 -0.000000 -0.000000
RightUpLeg -9.445389 -7.838978 -1.760352
RightLeg 8.129689 -0.000000 -0.000000
RightFoot -10.447348 -16.158055 17.541293
RightToeBase 23.570635 -0.000000 -0.000000
1311
root 19.408961 35.903250 -18.087090 -177.954348 13.688867 -177.580593
Spine 13.303159 1.085626 1.464281
Head -9.756914 9.728163 4.389651
LeftShoulder 0.805386 -22.857768 -1.453021
LeftArm 14.866200 67.711112 -73.716997
LeftForeArm 17.139066 -0.000000 32.489825
LeftHand 0.556403 -0.000000 -3.460260
LeftHandThumb1 -26.253704 0.000000 33.147579
RightShoulder -2.170154 -10.999887 7.301912
RightArm 27.074808 -24.810542 58.294766
RightForeArm -14.276094 -0.000000 59.209193
RightHand -0.786725 -0.000000 0.211959
RightHandThumb1 -24.326973 -0.000000 -32.862282
LeftUpLeg -1.379072 13.155536 -0.305548
LeftLeg 1.836291 -0.000000 -0.000000
LeftFoot -18.745372 30.447111 -9.491393
LeftToeBase 23.409146 -0.000000 -0.000000
RightUpLeg -8.459643 -8.576578 -1.645732
RightLeg 7.383261 -0.000000 -0.000000
RightFoot -10.947250 -16.179925 17.667761
RightToeBase 24.129508 -0.000000 -0.000000
1312
root 19.565780 35.889646 -18.197610 -178.189774 13.065242 -177.625728
Spine 12.596965 1.156580 1.464755
Head -8.838671 8.993307 4.635090
LeftShoulder 0.504957 -22.571647 -1.397059
LeftArm 15.209042 68.061858 -73.269615
LeftForeArm 17.927952 -0.000000 34.364985
LeftHand 0.392476 -0.000000 -3.325033
LeftHandThumb1 -26.253704 0.000000 33.147579
RightShoulder -2.726219 -11.175843 7.690915
RightArm 27.159327 -25.401510 57.808566
RightForeArm -14.935989 -0.000000 60.484435
RightHand -0.440824 0.000000 0.455303
RightHandThumb1 -24.326973 -0.000000 -32.862282
LeftUpLeg -1.076546 13.096206 -0.033313
LeftLeg 2.006066 -0.000000 -0.000000
LeftFoot -18.904442 29.978689 -9.452318
LeftToeBase 23.555124 -0.000000 -0.000000
RightUpLeg -7.532809 -9.073540 -1.554880
RightLeg 6.781472 -0.000000 -0.000000
RightFoot -11.740509 -16.258018 17.860815
RightToeBase 24.619433 -0.000000 -0.000000
1313
root 19.718863 35.875126 -18.310041 -178.416576 12.443477 -177.690074
Spine 11.900908 1.223680 1.465985
Head -7.971491 8.258030 4.781363
LeftShoulder 0.150499 -22.278637 -1.418527
LeftArm 15.760057 68.529344 -72.555343
LeftForeArm 18.461326 0.000000 36.197869
LeftHand 0.408129 0.000000 -2.960533
LeftHandThumb1 -26.253704 0.000000 33.147579
RightShoulder -3.245931 -11.317949 8.027017
RightArm 27.265554 -26.006777 57.355048
RightForeArm -15.445535 -0.000000 61.722972
RightHand -0.224623 -0.000000 0.643496
RightHandThumb1 -24.326973 -0.000000 -32.862282
LeftUpLeg -0.788297 12.932938 0.212201
LeftLeg 2.176355 -0.000000 -0.000000
LeftFoot -19.054410 29.588040 -9.432054
LeftToeBase 23.650162 -0.000000 -0.000000
RightUpLeg -6.642320 -9.569086 -1.480030
RightLeg 6.170371 -0.000000 -0.000000
RightFoot -12.309455 -16.474718 17.941362
RightToeBase 25.006966 -0.000000 -0.000000
1314
root 19.869944 35.859610 -18.418079 -178.639366 11.816083 -177.785667
Spine 11.220659 1.298096 1.428434
Head -7.160856 7.514159 4.838074
LeftShoulder -0.114360 -22.038872 -1.500249
LeftArm 15.760327 68.678805 -72.324114
LeftForeArm 18.925653 -0.000000 38.079933
LeftHand 0.210379 -0.000000 -3.080395
LeftHandThumb1 -26.253704 0.000000 33.147579
RightShoulder -3.746610 -11.455965 8.369903
RightArm 27.481869 -26.671873 56.783485
RightForeArm -15.433501 -0.000000 62.932660
RightHand -0.272069 -0.000000 0.713342
RightHandThumb1 -24.326973 -0.000000 -32.862282
LeftUpLeg -0.549089 12.712827 0.411912
LeftLeg 2.387504 -0.000000 -0.000000
LeftFoot -19.279606 29.264286 -9.579450
LeftToeBase 23.737941 -0.000000 -0.000000
RightUpLeg -5.776710 -10.036844 -1.435774
RightLeg 5.525062 -0.000000 -0.000000
RightFoot -12.784896 -16.624971 17.741235
RightToeBase 25.244615 -0.000000 -0.000000
1315
root 20.028565 35.842326 -18.515396 -178.873476 11.482032 -177.914922
Spine 10.606428 1.677323 1.284642
Head -6.434131 6.796219 4.936427
LeftShoulder -0.300600 -21.762086 -1.549797
LeftArm 15.663127 68.660089 -72.142316
LeftForeArm 19.267791 -0.000000 39.926807
LeftHand 0.153811 -0.000000 -2.946036
LeftHandThumb1 -26.253704 0.000000 33.147579
RightShoulder -4.092852 -11.541649 8.661020
RightArm 27.602366 -27.283823 56.342597
RightForeArm -15.703987 -0.000000 64.004146
RightHand -0.042945 -0.000000 0.673896
RightHandThumb1 -24.326973 -0.000000 -32.862282
LeftUpLeg -0.263128 12.725616 0.602880
LeftLeg 2.571752 -0.000000 -0.000000
LeftFoot -19.476034 28.947757 -9.704871
LeftToeBase 23.779747 -0.000000 -0.000000
RightUpLeg -4.973827 -10.006234 -1.409494
RightLeg 4.877690 -0.000000 -0.000000
RightFoot -13.193352 -16.910885 17.376197
RightToeBase 25.136638 -0.000000 -0.000000
